<mxfile host="app.diagrams.net" agent="Mozilla/5.0 (Windows NT 10.0; Win64; x64) AppleWebKit/537.36 (KHTML, like Gecko) Chrome/139.0.0.0 Safari/537.36" version="28.2.0" pages="2">
  <diagram name="Page-1" id="R4zYMKAZUH1EfL0LNs-L">
    <mxGraphModel dx="1188" dy="769" grid="1" gridSize="10" guides="1" tooltips="1" connect="1" arrows="1" fold="1" page="1" pageScale="1" pageWidth="827" pageHeight="1169" math="0" shadow="0">
      <root>
        <mxCell id="0" />
        <mxCell id="1" parent="0" />
        <mxCell id="-iUmL4_1PFdcWPyyGIMi-21" value="US-001:Â System automatically reconciles full payments" style="swimlane;childLayout=stackLayout;resizeParent=1;resizeParentMax=0;startSize=20;horizontal=0;horizontalStack=1;" vertex="1" parent="1">
          <mxGeometry x="40" y="40" width="642.5" height="560" as="geometry" />
        </mxCell>
        <mxCell id="-iUmL4_1PFdcWPyyGIMi-22" value="System / IT " style="swimlane;startSize=20;" vertex="1" parent="-iUmL4_1PFdcWPyyGIMi-21">
          <mxGeometry x="20" width="402.5" height="560" as="geometry">
            <mxRectangle x="20" width="32" height="560" as="alternateBounds" />
          </mxGeometry>
        </mxCell>
        <mxCell id="-iUmL4_1PFdcWPyyGIMi-23" style="edgeStyle=none;curved=1;rounded=0;orthogonalLoop=1;jettySize=auto;html=1;exitX=0.5;exitY=1;exitDx=0;exitDy=0;entryX=0.5;entryY=0;entryDx=0;entryDy=0;fontSize=12;startSize=8;endSize=8;" edge="1" parent="-iUmL4_1PFdcWPyyGIMi-22" source="-iUmL4_1PFdcWPyyGIMi-24" target="-iUmL4_1PFdcWPyyGIMi-26">
          <mxGeometry relative="1" as="geometry" />
        </mxCell>
        <mxCell id="-iUmL4_1PFdcWPyyGIMi-24" value="Receive daily billing &amp;amp; payments files" style="ellipse;whiteSpace=wrap;html=1;" vertex="1" parent="-iUmL4_1PFdcWPyyGIMi-22">
          <mxGeometry x="35" y="50" width="120" height="80" as="geometry" />
        </mxCell>
        <mxCell id="-iUmL4_1PFdcWPyyGIMi-25" style="edgeStyle=none;curved=1;rounded=0;orthogonalLoop=1;jettySize=auto;html=1;exitX=0.5;exitY=1;exitDx=0;exitDy=0;entryX=0.5;entryY=0;entryDx=0;entryDy=0;fontSize=12;startSize=8;endSize=8;" edge="1" parent="-iUmL4_1PFdcWPyyGIMi-22" source="-iUmL4_1PFdcWPyyGIMi-26" target="-iUmL4_1PFdcWPyyGIMi-28">
          <mxGeometry relative="1" as="geometry" />
        </mxCell>
        <mxCell id="-iUmL4_1PFdcWPyyGIMi-26" value="System ingests billing &amp;amp; payment data" style="rounded=0;whiteSpace=wrap;html=1;" vertex="1" parent="-iUmL4_1PFdcWPyyGIMi-22">
          <mxGeometry x="35" y="160" width="120" height="60" as="geometry" />
        </mxCell>
        <mxCell id="-iUmL4_1PFdcWPyyGIMi-27" style="edgeStyle=none;curved=1;rounded=0;orthogonalLoop=1;jettySize=auto;html=1;exitX=0.5;exitY=1;exitDx=0;exitDy=0;entryX=0.5;entryY=0;entryDx=0;entryDy=0;fontSize=12;startSize=8;endSize=8;" edge="1" parent="-iUmL4_1PFdcWPyyGIMi-22" source="-iUmL4_1PFdcWPyyGIMi-28" target="-iUmL4_1PFdcWPyyGIMi-29">
          <mxGeometry relative="1" as="geometry" />
        </mxCell>
        <mxCell id="-iUmL4_1PFdcWPyyGIMi-28" value="Auto-match payments to invoices" style="rounded=0;whiteSpace=wrap;html=1;" vertex="1" parent="-iUmL4_1PFdcWPyyGIMi-22">
          <mxGeometry x="35" y="240" width="120" height="60" as="geometry" />
        </mxCell>
        <mxCell id="-iUmL4_1PFdcWPyyGIMi-29" value="All invoices matched?" style="rhombus;whiteSpace=wrap;html=1;" vertex="1" parent="-iUmL4_1PFdcWPyyGIMi-22">
          <mxGeometry x="55" y="320" width="80" height="80" as="geometry" />
        </mxCell>
        <mxCell id="-iUmL4_1PFdcWPyyGIMi-30" value="Close matched invoices" style="ellipse;whiteSpace=wrap;html=1;" vertex="1" parent="-iUmL4_1PFdcWPyyGIMi-22">
          <mxGeometry x="35" y="450" width="120" height="80" as="geometry" />
        </mxCell>
        <mxCell id="-iUmL4_1PFdcWPyyGIMi-31" value="Flag unmatched invoices" style="rounded=0;whiteSpace=wrap;html=1;" vertex="1" parent="-iUmL4_1PFdcWPyyGIMi-22">
          <mxGeometry x="195" y="330" width="125" height="60" as="geometry" />
        </mxCell>
        <mxCell id="-iUmL4_1PFdcWPyyGIMi-32" value="" style="endArrow=classic;html=1;rounded=0;fontSize=12;startSize=8;endSize=8;curved=1;entryX=0;entryY=0.5;entryDx=0;entryDy=0;" edge="1" parent="-iUmL4_1PFdcWPyyGIMi-22" target="-iUmL4_1PFdcWPyyGIMi-31">
          <mxGeometry relative="1" as="geometry">
            <mxPoint x="135" y="359.5" as="sourcePoint" />
            <mxPoint x="205" y="360" as="targetPoint" />
          </mxGeometry>
        </mxCell>
        <mxCell id="-iUmL4_1PFdcWPyyGIMi-33" value="No" style="edgeLabel;resizable=0;html=1;;align=center;verticalAlign=middle;" connectable="0" vertex="1" parent="-iUmL4_1PFdcWPyyGIMi-32">
          <mxGeometry relative="1" as="geometry" />
        </mxCell>
        <mxCell id="-iUmL4_1PFdcWPyyGIMi-34" value="" style="endArrow=classic;html=1;rounded=0;fontSize=12;startSize=8;endSize=8;curved=1;entryX=0.5;entryY=0;entryDx=0;entryDy=0;" edge="1" parent="-iUmL4_1PFdcWPyyGIMi-22" target="-iUmL4_1PFdcWPyyGIMi-30">
          <mxGeometry relative="1" as="geometry">
            <mxPoint x="95" y="400" as="sourcePoint" />
            <mxPoint x="255" y="400" as="targetPoint" />
          </mxGeometry>
        </mxCell>
        <mxCell id="-iUmL4_1PFdcWPyyGIMi-35" value="Yes" style="edgeLabel;resizable=0;html=1;;align=center;verticalAlign=middle;" connectable="0" vertex="1" parent="-iUmL4_1PFdcWPyyGIMi-34">
          <mxGeometry relative="1" as="geometry" />
        </mxCell>
        <mxCell id="-iUmL4_1PFdcWPyyGIMi-36" value="" style="verticalLabelPosition=bottom;verticalAlign=top;html=1;shape=mxgraph.basic.frame;dx=10;whiteSpace=wrap;" vertex="1" parent="-iUmL4_1PFdcWPyyGIMi-22">
          <mxGeometry x="195" y="422" width="125" height="125" as="geometry" />
        </mxCell>
        <mxCell id="-iUmL4_1PFdcWPyyGIMi-37" value="&lt;span style=&quot;font-size: 12px; text-wrap-mode: wrap;&quot;&gt;Continue to US-002:&amp;nbsp;System flags partial payments&lt;/span&gt;" style="text;html=1;align=center;verticalAlign=middle;resizable=0;points=[];autosize=1;strokeColor=none;fillColor=none;fontSize=16;" vertex="1" parent="-iUmL4_1PFdcWPyyGIMi-22">
          <mxGeometry x="112.5" y="465" width="290" height="31" as="geometry" />
        </mxCell>
        <mxCell id="-iUmL4_1PFdcWPyyGIMi-38" style="edgeStyle=none;curved=1;rounded=0;orthogonalLoop=1;jettySize=auto;html=1;exitX=0.5;exitY=1;exitDx=0;exitDy=0;entryX=0.5;entryY=0;entryDx=0;entryDy=0;entryPerimeter=0;fontSize=12;startSize=8;endSize=8;" edge="1" parent="-iUmL4_1PFdcWPyyGIMi-22" source="-iUmL4_1PFdcWPyyGIMi-31" target="-iUmL4_1PFdcWPyyGIMi-36">
          <mxGeometry relative="1" as="geometry" />
        </mxCell>
        <mxCell id="-iUmL4_1PFdcWPyyGIMi-39" value="Billing Officer" style="swimlane;startSize=20;" vertex="1" parent="-iUmL4_1PFdcWPyyGIMi-21">
          <mxGeometry x="422.5" width="220" height="560" as="geometry" />
        </mxCell>
        <mxCell id="-iUmL4_1PFdcWPyyGIMi-40" value="Review flagged invoices" style="rounded=0;whiteSpace=wrap;html=1;" vertex="1" parent="-iUmL4_1PFdcWPyyGIMi-39">
          <mxGeometry x="50" y="450" width="120" height="60" as="geometry" />
        </mxCell>
      </root>
    </mxGraphModel>
  </diagram>
  <diagram id="3BdS2pwbt9mrFKYtVr_9" name="Page-2">
    <mxGraphModel dx="1188" dy="776" grid="1" gridSize="10" guides="1" tooltips="1" connect="1" arrows="1" fold="1" page="1" pageScale="1" pageWidth="827" pageHeight="1169" math="0" shadow="0">
      <root>
        <mxCell id="0" />
        <mxCell id="1" parent="0" />
        <mxCell id="OYBeeCawDCVQtdTFkf4j-1" value="US-002: Flag Partial Payments" style="swimlane;childLayout=stackLayout;resizeParent=1;resizeParentMax=0;startSize=20;horizontal=0;horizontalStack=1;" vertex="1" parent="1">
          <mxGeometry x="40" y="50" width="642.5" height="640" as="geometry" />
        </mxCell>
        <mxCell id="OYBeeCawDCVQtdTFkf4j-2" value="System / IT " style="swimlane;startSize=20;" vertex="1" parent="OYBeeCawDCVQtdTFkf4j-1">
          <mxGeometry x="20" width="402.5" height="640" as="geometry">
            <mxRectangle x="20" width="32" height="560" as="alternateBounds" />
          </mxGeometry>
        </mxCell>
        <mxCell id="OYBeeCawDCVQtdTFkf4j-3" style="edgeStyle=none;curved=1;rounded=0;orthogonalLoop=1;jettySize=auto;html=1;exitX=0.5;exitY=1;exitDx=0;exitDy=0;entryX=0.5;entryY=0;entryDx=0;entryDy=0;fontSize=12;startSize=8;endSize=8;" edge="1" parent="OYBeeCawDCVQtdTFkf4j-2" source="OYBeeCawDCVQtdTFkf4j-4" target="OYBeeCawDCVQtdTFkf4j-6">
          <mxGeometry relative="1" as="geometry" />
        </mxCell>
        <mxCell id="OYBeeCawDCVQtdTFkf4j-4" value="&lt;div&gt;Receive partial / unmatched&lt;span style=&quot;background-color: transparent; color: light-dark(rgb(0, 0, 0), rgb(255, 255, 255));&quot;&gt;&amp;nbsp;invoices from US-001&lt;/span&gt;&lt;/div&gt;" style="rounded=0;whiteSpace=wrap;html=1;" vertex="1" parent="OYBeeCawDCVQtdTFkf4j-2">
          <mxGeometry x="35" y="40" width="120" height="80" as="geometry" />
        </mxCell>
        <mxCell id="OYBeeCawDCVQtdTFkf4j-5" style="edgeStyle=none;curved=1;rounded=0;orthogonalLoop=1;jettySize=auto;html=1;exitX=0.5;exitY=1;exitDx=0;exitDy=0;entryX=0.5;entryY=0;entryDx=0;entryDy=0;fontSize=12;startSize=8;endSize=8;" edge="1" parent="OYBeeCawDCVQtdTFkf4j-2" source="OYBeeCawDCVQtdTFkf4j-6" target="OYBeeCawDCVQtdTFkf4j-7">
          <mxGeometry relative="1" as="geometry" />
        </mxCell>
        <mxCell id="OYBeeCawDCVQtdTFkf4j-6" value="Check if payment &amp;lt; invoice" style="rounded=0;whiteSpace=wrap;html=1;" vertex="1" parent="OYBeeCawDCVQtdTFkf4j-2">
          <mxGeometry x="35" y="150" width="120" height="60" as="geometry" />
        </mxCell>
        <mxCell id="OYBeeCawDCVQtdTFkf4j-7" value="Is payment partial?" style="rhombus;whiteSpace=wrap;html=1;" vertex="1" parent="OYBeeCawDCVQtdTFkf4j-2">
          <mxGeometry x="55" y="250" width="80" height="80" as="geometry" />
        </mxCell>
        <mxCell id="OYBeeCawDCVQtdTFkf4j-8" value="Route to investigation /&amp;nbsp;closure by Billing Officer" style="rounded=0;whiteSpace=wrap;html=1;" vertex="1" parent="OYBeeCawDCVQtdTFkf4j-2">
          <mxGeometry x="195" y="260" width="125" height="60" as="geometry" />
        </mxCell>
        <mxCell id="OYBeeCawDCVQtdTFkf4j-9" value="" style="endArrow=classic;html=1;rounded=0;fontSize=12;startSize=8;endSize=8;curved=1;entryX=0;entryY=0.5;entryDx=0;entryDy=0;exitX=1;exitY=0.5;exitDx=0;exitDy=0;" edge="1" parent="OYBeeCawDCVQtdTFkf4j-2" source="OYBeeCawDCVQtdTFkf4j-7" target="OYBeeCawDCVQtdTFkf4j-8">
          <mxGeometry relative="1" as="geometry">
            <mxPoint x="135" y="359.5" as="sourcePoint" />
            <mxPoint x="205" y="360" as="targetPoint" />
          </mxGeometry>
        </mxCell>
        <mxCell id="OYBeeCawDCVQtdTFkf4j-10" value="No" style="edgeLabel;resizable=0;html=1;;align=center;verticalAlign=middle;" connectable="0" vertex="1" parent="OYBeeCawDCVQtdTFkf4j-9">
          <mxGeometry relative="1" as="geometry" />
        </mxCell>
        <mxCell id="OYBeeCawDCVQtdTFkf4j-11" value="" style="endArrow=classic;html=1;rounded=0;fontSize=12;startSize=8;endSize=8;curved=1;entryX=0.5;entryY=0;entryDx=0;entryDy=0;exitX=0.5;exitY=1;exitDx=0;exitDy=0;" edge="1" parent="OYBeeCawDCVQtdTFkf4j-2" source="OYBeeCawDCVQtdTFkf4j-7" target="OYBeeCawDCVQtdTFkf4j-14">
          <mxGeometry relative="1" as="geometry">
            <mxPoint x="95" y="400" as="sourcePoint" />
            <mxPoint x="95" y="450" as="targetPoint" />
          </mxGeometry>
        </mxCell>
        <mxCell id="OYBeeCawDCVQtdTFkf4j-12" value="Yes" style="edgeLabel;resizable=0;html=1;;align=center;verticalAlign=middle;" connectable="0" vertex="1" parent="OYBeeCawDCVQtdTFkf4j-11">
          <mxGeometry relative="1" as="geometry" />
        </mxCell>
        <mxCell id="OYBeeCawDCVQtdTFkf4j-13" style="edgeStyle=none;curved=1;rounded=0;orthogonalLoop=1;jettySize=auto;html=1;exitX=0.5;exitY=1;exitDx=0;exitDy=0;entryX=0.5;entryY=0;entryDx=0;entryDy=0;fontSize=12;startSize=8;endSize=8;" edge="1" parent="OYBeeCawDCVQtdTFkf4j-2" source="OYBeeCawDCVQtdTFkf4j-14" target="OYBeeCawDCVQtdTFkf4j-16">
          <mxGeometry relative="1" as="geometry" />
        </mxCell>
        <mxCell id="OYBeeCawDCVQtdTFkf4j-14" value="Flag invoice as exception" style="rounded=0;whiteSpace=wrap;html=1;" vertex="1" parent="OYBeeCawDCVQtdTFkf4j-2">
          <mxGeometry x="35" y="380" width="120" height="60" as="geometry" />
        </mxCell>
        <mxCell id="OYBeeCawDCVQtdTFkf4j-15" style="edgeStyle=none;curved=1;rounded=0;orthogonalLoop=1;jettySize=auto;html=1;exitX=0.5;exitY=1;exitDx=0;exitDy=0;entryX=0.5;entryY=0;entryDx=0;entryDy=0;fontSize=12;startSize=8;endSize=8;" edge="1" parent="OYBeeCawDCVQtdTFkf4j-2" source="OYBeeCawDCVQtdTFkf4j-16" target="OYBeeCawDCVQtdTFkf4j-17">
          <mxGeometry relative="1" as="geometry" />
        </mxCell>
        <mxCell id="OYBeeCawDCVQtdTFkf4j-16" value="Update exception dashboard" style="rounded=0;whiteSpace=wrap;html=1;" vertex="1" parent="OYBeeCawDCVQtdTFkf4j-2">
          <mxGeometry x="35" y="470" width="120" height="60" as="geometry" />
        </mxCell>
        <mxCell id="OYBeeCawDCVQtdTFkf4j-17" value="Send notification" style="rounded=0;whiteSpace=wrap;html=1;" vertex="1" parent="OYBeeCawDCVQtdTFkf4j-2">
          <mxGeometry x="35" y="560" width="120" height="60" as="geometry" />
        </mxCell>
        <mxCell id="OYBeeCawDCVQtdTFkf4j-18" value="Billing Officer" style="swimlane;startSize=20;" vertex="1" parent="OYBeeCawDCVQtdTFkf4j-1">
          <mxGeometry x="422.5" width="220" height="640" as="geometry" />
        </mxCell>
        <mxCell id="OYBeeCawDCVQtdTFkf4j-19" value="Review flagged invoices" style="rounded=0;whiteSpace=wrap;html=1;" vertex="1" parent="OYBeeCawDCVQtdTFkf4j-18">
          <mxGeometry x="37.5" y="560" width="120" height="60" as="geometry" />
        </mxCell>
      </root>
    </mxGraphModel>
  </diagram>
</mxfile>
